<?xml version="1.0" encoding="UTF-8"?><svg id="Layer_1" xmlns="http://www.w3.org/2000/svg" xmlns:xlink="http://www.w3.org/1999/xlink" viewBox="0 0 288 288"><defs><style>.cls-1{fill:url(#linear-gradient);stroke-width:0px;}</style><linearGradient id="linear-gradient" x1="147.02" y1="32.97" x2="147.02" y2="251.14" gradientUnits="userSpaceOnUse"><stop offset="0" stop-color="#ffd800"/><stop offset="1" stop-color="#eeb211"/></linearGradient></defs><path class="cls-1" d="M144,254.23c-60.78,0-110.23-49.45-110.23-110.23s49.45-110.23,110.23-110.23h24.63l-14.54,19.88c-7.02,9.63-25.26,38.99-25.26,58.87,0,33.97,27.63,61.6,61.6,61.6,10.82,0,31.32-9.81,41.7-15.99l28.13-16.75-9.8,31.23c-7.71,24.55-21.46,45.06-39.76,59.32-18.72,14.59-41.79,22.3-66.7,22.3ZM119.29,62.42c-34.99,10.62-60.53,43.17-60.53,81.58,0,47,38.23,85.23,85.23,85.23,28.12,0,51.99-12.38,67.86-34.26-7.28,2.43-14.78,4.15-21.43,4.15-47.75,0-86.6-38.85-86.6-86.6,0-16.96,7.78-35.71,15.46-50.1Z"/></svg>