<?xml version="1.0" encoding="UTF-8"?><svg id="Layer_1" xmlns="http://www.w3.org/2000/svg" xmlns:xlink="http://www.w3.org/1999/xlink" viewBox="0 0 288 288"><defs><style>.cls-1{fill:url(#linear-gradient);}.cls-1,.cls-2,.cls-3,.cls-4,.cls-5,.cls-6,.cls-7,.cls-8,.cls-9{stroke-width:0px;}.cls-2{fill:url(#linear-gradient-4);}.cls-3{fill:url(#linear-gradient-2);}.cls-4{fill:url(#linear-gradient-3);}.cls-5{fill:url(#linear-gradient-8);}.cls-6{fill:url(#linear-gradient-9);}.cls-7{fill:url(#linear-gradient-7);}.cls-8{fill:url(#linear-gradient-5);}.cls-9{fill:url(#linear-gradient-6);}</style><linearGradient id="linear-gradient" x1="144" y1="8.99" x2="144" y2="274.9" gradientUnits="userSpaceOnUse"><stop offset="0" stop-color="#ffd800"/><stop offset="1" stop-color="#eeb211"/></linearGradient><linearGradient id="linear-gradient-2" x1="144.26" x2="144.26" xlink:href="#linear-gradient"/><linearGradient id="linear-gradient-3" x1="145.62" x2="145.62" xlink:href="#linear-gradient"/><linearGradient id="linear-gradient-4" x1="48.1" y1="8.99" x2="48.1" y2="274.9" xlink:href="#linear-gradient"/><linearGradient id="linear-gradient-5" x1="239.9" y1="8.99" x2="239.9" y2="274.9" xlink:href="#linear-gradient"/><linearGradient id="linear-gradient-6" x1="75.7" y1="8.99" x2="75.7" y2="274.9" xlink:href="#linear-gradient"/><linearGradient id="linear-gradient-7" x1="212.3" y1="8.99" x2="212.3" y2="274.9" xlink:href="#linear-gradient"/><linearGradient id="linear-gradient-8" x1="211.33" y1="8.99" x2="211.33" y2="274.9" xlink:href="#linear-gradient"/><linearGradient id="linear-gradient-9" x1="76.67" y1="8.99" x2="76.67" y2="274.9" xlink:href="#linear-gradient"/></defs><path class="cls-1" d="M144,192.49c-26.74,0-48.49-21.75-48.49-48.49s21.75-48.49,48.49-48.49,48.49,21.75,48.49,48.49-21.75,48.49-48.49,48.49ZM144,120.51c-12.95,0-23.49,10.54-23.49,23.49s10.54,23.49,23.49,23.49,23.49-10.54,23.49-23.49-10.54-23.49-23.49-23.49Z"/><path class="cls-3" d="M144.26,83.97c-6.9,0-12.5-5.6-12.5-12.5V24.72c0-6.9,5.6-12.5,12.5-12.5s12.5,5.6,12.5,12.5v46.76c0,6.9-5.6,12.5-12.5,12.5Z"/><path class="cls-4" d="M145.62,275.78c-6.9,0-12.5-5.6-12.5-12.5v-46.76c0-6.9,5.6-12.5,12.5-12.5s12.5,5.6,12.5,12.5v46.76c0,6.9-5.6,12.5-12.5,12.5Z"/><path class="cls-2" d="M71.47,156.41H24.72c-6.9,0-12.5-5.6-12.5-12.5s5.6-12.5,12.5-12.5h46.76c6.9,0,12.5,5.6,12.5,12.5s-5.6,12.5-12.5,12.5Z"/><path class="cls-8" d="M263.28,155.05h-46.76c-6.9,0-12.5-5.6-12.5-12.5s5.6-12.5,12.5-12.5h46.76c6.9,0,12.5,5.6,12.5,12.5s-5.6,12.5-12.5,12.5Z"/><path class="cls-9" d="M92.23,105.7c-3.2,0-6.4-1.22-8.84-3.66l-33.06-33.06c-4.88-4.88-4.88-12.8,0-17.68,4.88-4.88,12.8-4.88,17.68,0l33.06,33.06c4.88,4.88,4.88,12.8,0,17.68-2.44,2.44-5.64,3.66-8.84,3.66Z"/><path class="cls-7" d="M228.83,240.36c-3.2,0-6.4-1.22-8.84-3.66l-33.06-33.06c-4.88-4.88-4.88-12.8,0-17.68s12.8-4.88,17.68,0l33.06,33.06c4.88,4.88,4.88,12.8,0,17.68-2.44,2.44-5.64,3.66-8.84,3.66Z"/><path class="cls-5" d="M194.8,104.73c-3.2,0-6.4-1.22-8.84-3.66-4.88-4.88-4.88-12.8,0-17.68l33.06-33.06c4.88-4.88,12.8-4.88,17.68,0s4.88,12.8,0,17.68l-33.06,33.06c-2.44,2.44-5.64,3.66-8.84,3.66Z"/><path class="cls-6" d="M60.14,241.33c-3.2,0-6.4-1.22-8.84-3.66-4.88-4.88-4.88-12.8,0-17.68l33.06-33.06c4.88-4.88,12.8-4.88,17.68,0,4.88,4.88,4.88,12.8,0,17.68l-33.06,33.06c-2.44,2.44-5.64,3.66-8.84,3.66Z"/></svg>